<?xml version="1.0" standalone="no"?>
<!DOCTYPE svg PUBLIC "-//W3C//DTD SVG 20010904//EN"
 "http://www.w3.org/TR/2001/REC-SVG-20010904/DTD/svg10.dtd">
<svg version="1.0" xmlns="http://www.w3.org/2000/svg"
 width="100.000000pt" height="100.000000pt" viewBox="0 0 100.000000 100.000000"
 preserveAspectRatio="xMidYMid meet">

<g transform="translate(0.000000,100.000000) scale(0.100000,-0.100000)"
fill="#000000" stroke="none">
<path d="M0 500 l0 -500 500 0 500 0 0 500 0 500 -500 0 -500 0 0 -500z m478
87 l-3 -312 -2 308 c-2 205 -7 307 -14 307 -5 0 -7 5 -4 10 20 33 25 -27 23
-313z m52 3 l-6 -315 -2 311 c-1 171 1 314 5 317 3 4 7 6 7 5 1 -2 -1 -145 -4
-318z m-91 273 c-11 -12 -15 -82 -19 -312 l-6 -296 -2 290 c-2 249 0 294 14
313 8 12 18 22 21 22 3 0 -1 -7 -8 -17z m131 7 c0 -5 -2 -10 -4 -10 -3 0 -8 5
-11 10 -3 6 -1 10 4 10 6 0 11 -4 11 -10z m17 -462 c-1 -79 -3 -15 -3 142 0
157 2 221 3 143 2 -79 2 -207 0 -285z m-218 215 c-1 -109 -4 -208 -7 -221 -4
-13 -6 75 -4 195 l3 218 -26 -28 c-14 -15 -25 -25 -25 -21 0 11 42 54 52 54 4
0 8 -89 7 -197z m297 175 l19 -23 -23 20 -24 20 4 -218 c1 -120 0 -208 -4
-195 -9 35 -9 418 0 418 5 0 17 -10 28 -22z m-366 -404 l-10 -39 5 40 c3 22 6
112 7 200 l2 160 3 -161 c2 -88 -1 -178 -7 -200z m402 141 c2 -99 1 -162 -4
-140 -4 22 -6 112 -6 200 1 203 6 174 10 -60z m27 -262 c1 -24 -3 -43 -7 -43
-5 0 -18 19 -31 43 -12 23 -16 34 -9 24 38 -55 40 -55 34 3 -3 35 -1 48 4 35
5 -11 9 -39 9 -62z m-415 8 c-15 -28 -31 -51 -36 -51 -4 0 -7 19 -7 43 l2 42
6 -35 7 -35 24 47 c13 26 26 46 28 43 2 -2 -8 -26 -24 -54z m146 -88 c-11 -17
-11 -17 -6 0 3 10 7 26 7 35 1 15 2 15 6 0 2 -10 -1 -25 -7 -35z m77 25 c-3
-8 -6 -5 -6 6 -1 11 2 17 5 13 3 -3 4 -12 1 -19z m-140 -60 c-3 -8 -6 -5 -6 6
-1 11 2 17 5 13 3 -3 4 -12 1 -19z m210 0 c-3 -8 -6 -5 -6 6 -1 11 2 17 5 13
3 -3 4 -12 1 -19z m-157 4 c0 -5 -7 -17 -15 -28 -14 -18 -14 -17 -4 9 12 27
19 34 19 19z m119 -22 c11 -24 11 -24 -3 -6 -9 11 -16 24 -16 30 0 12 5 7 19
-24z"/>
</g>
</svg>
