<?xml version="1.0" standalone="no"?>
<!DOCTYPE svg PUBLIC "-//W3C//DTD SVG 20010904//EN"
 "http://www.w3.org/TR/2001/REC-SVG-20010904/DTD/svg10.dtd">
<svg version="1.0" xmlns="http://www.w3.org/2000/svg"
 width="523.000000pt" height="523.000000pt" viewBox="0 0 523.000000 523.000000"
 preserveAspectRatio="xMidYMid meet">

<g transform="translate(0.000000,523.000000) scale(0.100000,-0.100000)"
fill="#000000" stroke="none">
<path d="M0 2615 l0 -2615 2615 0 2615 0 0 2615 0 2615 -2615 0 -2615 0 0
-2615z m594 753 c3 -13 6 -327 6 -698 0 -801 -2 -823 -86 -1011 -15 -33 -30
-59 -34 -59 -4 0 8 36 27 80 73 168 73 181 71 981 l-3 712 -37 -39 c-77 -79
-72 -29 -79 -794 -6 -662 -7 -688 -27 -765 -45 -164 -51 -181 -51 -154 -1 15
8 56 19 91 36 118 40 191 40 843 1 638 1 640 23 692 23 54 93 143 113 143 7 0
14 -10 18 -22z m160 -12 c19 -19 48 -59 63 -88 l28 -53 5 -695 6 -695 27 -88
c15 -48 26 -100 26 -115 -1 -20 -2 -22 -6 -7 -3 11 -16 58 -29 105 -37 127
-44 265 -44 908 0 575 0 583 -21 625 -26 51 -53 86 -80 105 -20 14 -20 12 -17
-730 4 -825 0 -776 74 -950 17 -43 29 -78 25 -78 -15 0 -52 90 -89 210 l-26
85 -4 733 c-3 704 -1 762 23 762 2 0 19 -15 39 -34z m-414 -608 c0 -454 -3
-494 -46 -628 -27 -85 -122 -253 -145 -258 -12 -2 -18 8 -22 37 -8 62 -2 108
28 216 l28 100 4 395 c4 459 2 448 88 546 17 19 38 33 48 32 17 -3 18 -27 17
-440z m677 400 c82 -84 83 -87 83 -478 0 -358 10 -484 46 -580 15 -43 27 -191
17 -217 -17 -45 -78 37 -142 191 -69 166 -73 202 -78 636 -4 400 0 490 21 490
6 0 31 -19 53 -42z m1757 -827 c3 -5 -2 -15 -12 -22 -15 -12 -16 -12 -5 2 7 9
10 19 6 22 -3 4 -4 7 0 7 3 0 8 -4 11 -9z m-857 -378 c-1 -71 -3 -13 -3 127 0
140 2 198 3 128 2 -71 2 -185 0 -255z m470 0 c-1 -71 -3 -13 -3 127 0 140 2
198 3 128 2 -71 2 -185 0 -255z m810 120 c-1 -49 -3 -9 -3 87 0 96 2 136 3 88
2 -49 2 -127 0 -175z m90 -45 c-1 -57 -3 -11 -3 102 0 113 2 159 3 103 2 -57
2 -149 0 -205z m230 25 c-1 -54 -3 -12 -3 92 0 105 2 149 3 98 2 -51 2 -136 0
-190z m330 271 c-3 -3 -12 -4 -19 -1 -8 3 -5 6 6 6 11 1 17 -2 13 -5z m210
-371 c-1 -71 -3 -13 -3 127 0 140 2 198 3 128 2 -71 2 -185 0 -255z m400 371
c-3 -3 -12 -4 -19 -1 -8 3 -5 6 6 6 11 1 17 -2 13 -5z m160 0 c-3 -3 -12 -4
-19 -1 -8 3 -5 6 6 6 11 1 17 -2 13 -5z m-2422 -46 c19 -22 19 -22 -10 2 -48
40 -51 43 -30 32 11 -6 29 -21 40 -34z m2950 32 c3 -6 -1 -7 -9 -4 -18 7 -21
14 -7 14 6 0 13 -4 16 -10z m-3398 -362 c-1 -68 -3 -13 -3 122 0 135 2 190 3
123 2 -68 2 -178 0 -245z m355 335 c55 -59 62 -180 13 -229 -18 -18 -35 -24
-70 -24 l-45 0 0 140 0 140 38 0 c29 0 45 -7 64 -27z m1708 12 c64 -33 102
-116 102 -220 -1 -86 -17 -140 -56 -183 -32 -34 -38 -36 -105 -40 l-71 -4 0
231 0 231 50 0 c28 0 64 -7 80 -15z m847 -21 c135 -84 146 -261 23 -366 -153
-132 -393 -24 -395 177 0 97 57 175 154 212 60 22 162 11 218 -23z m293 33 c0
-2 -10 -12 -22 -23 l-23 -19 19 23 c18 21 26 27 26 19z m-2150 -11 c0 -2 -8
-10 -17 -17 -16 -13 -17 -12 -4 4 13 16 21 21 21 13z m2200 0 c0 -2 -8 -10
-17 -17 -16 -13 -17 -12 -4 4 13 16 21 21 21 13z m91 -13 c13 -16 12 -17 -3
-4 -17 13 -22 21 -14 21 2 0 10 -8 17 -17z m98 -17 c-3 -3 -11 5 -18 17 -13
21 -12 21 5 5 10 -10 16 -20 13 -22z m-2719 -6 c6 -11 8 -20 6 -20 -3 0 -10 9
-16 20 -6 11 -8 20 -6 20 3 0 10 -9 16 -20z m1830 7 c0 -2 -17 -19 -37 -38
l-38 -34 34 38 c33 34 41 42 41 34z m490 -32 c19 -19 32 -35 29 -35 -3 0 -20
16 -39 35 -19 19 -32 35 -29 35 3 0 20 -16 39 -35z m-2060 21 c0 -2 -8 -10
-17 -17 -16 -13 -17 -12 -4 4 13 16 21 21 21 13z m20 -30 c0 -2 -8 -10 -17
-17 -16 -13 -17 -12 -4 4 13 16 21 21 21 13z m2147 -18 c-3 -8 -6 -5 -6 6 -1
11 2 17 5 13 3 -3 4 -12 1 -19z m-3517 -175 c0 -2 -22 -3 -50 -3 -27 0 -50 4
-50 8 0 8 32 106 46 142 4 9 16 -19 30 -65 13 -44 24 -81 24 -82z m857 120
c-3 -10 -5 -4 -5 12 0 17 2 24 5 18 2 -7 2 -21 0 -30z m1986 22 c-3 -9 -8 -14
-10 -11 -3 3 -2 9 2 15 9 16 15 13 8 -4z m782 -5 c10 -11 16 -20 13 -20 -3 0
-13 9 -23 20 -10 11 -16 20 -13 20 3 0 13 -9 23 -20z m-2305 -14 c0 -2 -8 -10
-17 -17 -16 -13 -17 -12 -4 4 13 16 21 21 21 13z m1297 -18 c-3 -8 -6 -5 -6 6
-1 11 2 17 5 13 3 -3 4 -12 1 -19z m-1347 6 c0 -8 -19 -13 -24 -6 -3 5 1 9 9
9 8 0 15 -2 15 -3z m2315 -52 c-3 -3 -6 -3 -7 -1 -2 2 -14 18 -28 34 l-25 30
32 -29 c18 -16 31 -32 28 -34z m-2299 8 c0 -12 -4 -16 -9 -11 -5 5 -6 14 -3
20 10 15 12 14 12 -9z m1531 -32 c-2 -13 -4 -5 -4 17 -1 22 1 32 4 23 2 -10 2
-28 0 -40z m660 0 c-2 -13 -4 -5 -4 17 -1 22 1 32 4 23 2 -10 2 -28 0 -40z
m-2277 13 c7 -15 7 -22 -2 -27 -7 -4 -10 -4 -6 1 4 4 3 16 -3 26 -5 11 -7 19
-5 19 3 0 10 -9 16 -19z m2480 -37 c0 -2 -13 2 -30 11 -16 9 -30 18 -30 21 0
2 14 -2 30 -11 17 -9 30 -18 30 -21z m120 11 c13 -14 21 -25 18 -25 -2 0 -15
11 -28 25 -13 14 -21 25 -18 25 2 0 15 -11 28 -25z m-1183 -37 c-3 -7 -5 -2
-5 12 0 14 2 19 5 13 2 -7 2 -19 0 -25z m-1827 17 c0 -2 -10 -9 -22 -15 -22
-11 -22 -10 -4 4 21 17 26 19 26 11z m446 -7 c4 -7 4 -10 -1 -6 -4 4 -15 2
-24 -5 -14 -11 -14 -10 -2 6 16 20 18 21 27 5z m2361 -65 c-2 -16 -4 -5 -4 22
0 28 2 40 4 28 2 -13 2 -35 0 -50z m-90 5 c-2 -13 -4 -5 -4 17 -1 22 1 32 4
23 2 -10 2 -28 0 -40z m-2827 22 c6 -11 8 -20 6 -20 -3 0 -10 9 -16 20 -6 11
-8 20 -6 20 3 0 10 -9 16 -20z m490 16 c0 -2 -8 -10 -17 -17 -16 -13 -17 -12
-4 4 13 16 21 21 21 13z m190 -36 c6 -11 8 -20 6 -20 -3 0 -10 9 -16 20 -6 11
-8 20 -6 20 3 0 10 -9 16 -20z m2477 -17 c-3 -10 -5 -4 -5 12 0 17 2 24 5 18
2 -7 2 -21 0 -30z m-80 -5 c-3 -8 -6 -5 -6 6 -1 11 2 17 5 13 3 -3 4 -12 1
-19z m-1660 -10 c-3 -8 -6 -5 -6 6 -1 11 2 17 5 13 3 -3 4 -12 1 -19z m793
-13 c13 -14 21 -25 18 -25 -2 0 -15 11 -28 25 -13 14 -21 25 -18 25 2 0 15
-11 28 -25z m540 22 c0 -2 -12 -14 -27 -28 l-28 -24 24 28 c23 25 31 32 31 24z
m-2310 -11 c0 -2 -8 -10 -17 -17 -16 -13 -17 -12 -4 4 13 16 21 21 21 13z
m1460 -19 c0 -2 -15 -16 -32 -33 l-33 -29 29 33 c28 30 36 37 36 29z m1044
-32 l17 -30 -20 24 c-12 13 -21 28 -21 34 0 12 0 11 24 -28z m-2214 5 c6 -11
8 -20 6 -20 -3 0 -10 9 -16 20 -6 11 -8 20 -6 20 3 0 10 -9 16 -20z m670 7 c0
-2 -10 -12 -22 -23 l-23 -19 19 23 c18 21 26 27 26 19z m1670 -11 c0 -2 -8
-10 -17 -17 -16 -13 -17 -12 -4 4 13 16 21 21 21 13z m-2980 -36 c6 -11 8 -20
6 -20 -3 0 -10 9 -16 20 -6 11 -8 20 -6 20 3 0 10 -9 16 -20z m1195 2 c-3 -3
-11 0 -18 7 -9 10 -8 11 6 5 10 -3 15 -9 12 -12z m-527 -17 c-3 -3 -9 2 -12
12 -6 14 -5 15 5 6 7 -7 10 -15 7 -18z m1067 15 c-3 -5 -12 -10 -18 -10 -7 0
-6 4 3 10 19 12 23 12 15 0z m1080 -8 c-3 -3 -11 0 -18 7 -9 10 -8 11 6 5 10
-3 15 -9 12 -12z m190 8 c-3 -5 -12 -10 -18 -10 -7 0 -6 4 3 10 19 12 23 12
15 0z m-1305 -14 c0 -2 -7 -7 -16 -10 -8 -3 -12 -2 -9 4 6 10 25 14 25 6z
m607 -2 c-3 -3 -12 -4 -19 -1 -8 3 -5 6 6 6 11 1 17 -2 13 -5z m160 0 c-3 -3
-12 -4 -19 -1 -8 3 -5 6 6 6 11 1 17 -2 13 -5z"/>
<path d="M286 3145 c-81 -82 -80 -78 -87 -545 -5 -400 -7 -417 -29 -485 -27
-81 -40 -240 -19 -233 16 5 80 120 114 204 60 150 65 210 63 676 l-3 423 -39
-40z"/>
<path d="M962 2728 c4 -428 5 -457 26 -531 33 -121 128 -317 152 -317 21 0 10
144 -17 225 l-27 80 -6 415 c-5 365 -8 420 -23 454 -20 45 -83 126 -98 126 -7
0 -9 -156 -7 -452z"/>
</g>
</svg>
